<?xml version="1.0" encoding="UTF-8"?>
<!-- Created with Inkscape (http://www.inkscape.org/) -->
<svg width="180" height="180" version="1.1" viewBox="0 0 180 180" xml:space="preserve" xmlns="http://www.w3.org/2000/svg" xmlns:xlink="http://www.w3.org/1999/xlink"><defs><linearGradient id="linearGradient3608" x1="-77.7" x2="-77.4" y1="-16.7" y2="128" gradientTransform="matrix(1.11 0 0 1.11 4.47 -6.83)" gradientUnits="userSpaceOnUse"><stop stop-color="#bc6033" offset="0"/><stop stop-color="#6b3017" offset="1"/></linearGradient><linearGradient id="linearGradient3679" x1="-83.6" x2="-83.5" y1="-15.7" y2="124" gradientUnits="userSpaceOnUse"><stop stop-color="#f2f7f9" offset="0"/><stop stop-color="#afd0db" offset="1"/></linearGradient></defs><g transform="translate(171 37.6)" stroke-linecap="round" stroke-linejoin="round"><path d="m-116-32.5a50.2 50.2 0 0 0-50.2 50.2v69.4a50.2 50.2 0 0 0 50.2 50.2h69.4a50.2 50.2 0 0 0 50.2-50.2v-69.4a50.2 50.2 0 0 0-50.2-50.2z" color="#000000" fill="url(#linearGradient3608)" stroke-width="1.11" style="-inkscape-stroke:none"/><path d="m-110-18.6a42 42 0 0 0-42 42v58a42 42 0 0 0 42 42h58a42 42 0 0 0 42-42v-58a42 42 0 0 0-42-42z" color="#000000" fill="url(#linearGradient3679)" stroke-width=".93" style="-inkscape-stroke:none"/></g><path d="m100 151c-11 0.197-21.3-8.31-23.4-19.1-0.718-2.79-0.303-5.79-0.283-8.63 1.19-6.6 5.03-12.6 10.6-16.3 4.01-2.41 8.62-4.21 13.4-3.73 4.97-0.402 9.81 1.74 13.9 4.32 0.418-2.74 0.059-6.26 0.179-9.3 0.0636-20.5-0.127-40.9 0.0949-61.4 0.403-2.94 3.53-4.91 6.39-4.17 10.1 0.374 19.8 5.51 26.3 12.8 5.9 6.61 12.5 17 8.83 25.1-1.08 2.39-4.68 3.3-7.28 2.95-10.3-1.37-10.4-19.4-24.7-18.8l-0.161 77c-1.64 5.91-4.85 11.5-9.96 15-3.28 2.13-6.95 3.63-10.9 4.13-1.04 0.283-2.12 0.102-3.02 0.128zm-45.8-62.4h-17.5c-2.53-1.13-4.41-4.18-2.82-6.79 0.643-1.89 2.96-3 4.91-2.66h32.8c2.1 1.1 3.76 3.2 3.24 5.66-0.495 2.48-3.05 4.37-5.61 3.79zm15.8-19.2h-33.3c-2.53-1.13-4.41-4.18-2.82-6.79 0.643-1.89 2.96-3 4.91-2.66h64.6c2.26 0.925 4.13 3.11 3.34 5.66-0.134 2.99-3.56 4.28-6.18 3.79zm0-19.2h-33.3c-2.53-1.13-4.41-4.18-2.82-6.79 0.643-1.89 2.96-3 4.91-2.66h64.6c2.26 0.925 4.13 3.11 3.34 5.66-0.134 2.99-3.56 4.28-6.18 3.79z" fill="#00222b" stroke-width=".3"/></svg>
